<?xml version="1.0" encoding="iso-8859-1"?>
<!-- Uploaded to: SVG Repo, www.svgrepo.com, Generator: SVG Repo Mixer Tools -->
<svg height="800px" width="800px" version="1.1" id="Layer_1" xmlns="http://www.w3.org/2000/svg" xmlns:xlink="http://www.w3.org/1999/xlink" 
	 viewBox="0 0 511.998 511.998" xml:space="preserve">
<g>
	<path style="fill:#F4D853;" d="M455.574,49.906c-2.361-5.702-6.89-10.231-12.592-12.592
		C383.261,12.577,320.353,0.026,255.999,0.002c-0.06,0-0.121-0.002-0.181-0.002C191.64,0,128.793,12.555,69.016,37.316
		c-5.702,2.362-10.231,6.892-12.592,12.592c-2.361,5.702-2.361,12.108,0,17.809l33.401,80.633c0.006,0.016,0.011,0.031,0.017,0.045
		l144.661,349.242c0.901,2.173,2.106,4.159,3.555,5.911c1.449,1.754,3.141,3.278,5.015,4.529c0.937,0.627,1.919,1.184,2.939,1.669
		c1.021,0.485,2.077,0.897,3.166,1.23c2.175,0.667,4.47,1.022,6.822,1.022c9.411,0,17.894-5.669,21.496-14.364l144.655-349.232
		l33.424-80.69C457.934,62.013,457.934,55.607,455.574,49.906z"/>
	<path style="fill:#F4D853;" d="M223.17,348.675c-1.94,0.298-3.926,0.454-5.95,0.454c-8.1,0-15.615-2.486-21.835-6.732
		c-10.228-6.982-16.943-18.729-16.943-32.047c0-2.466,0.24-4.877,0.679-7.214c1.854-9.85,7.428-18.381,15.212-24.083
		c6.416-4.7,14.323-7.481,22.887-7.481c21.417,0,38.779,17.362,38.779,38.779C255.999,329.744,241.761,345.812,223.17,348.675z
		 M279.167,204.4c-0.016,0.222-0.033,0.441-0.051,0.661c-0.07,0.828-0.158,1.649-0.278,2.462c-0.006,0.039-0.009,0.078-0.016,0.116
		c-0.129,0.85-0.293,1.688-0.478,2.518c-0.045,0.202-0.092,0.403-0.14,0.603c-0.185,0.782-0.388,1.556-0.62,2.319
		c-0.014,0.047-0.026,0.093-0.039,0.14c-0.251,0.814-0.537,1.613-0.839,2.404c-0.064,0.171-0.132,0.338-0.2,0.507
		c-0.296,0.743-0.61,1.478-0.951,2.198c-0.019,0.042-0.036,0.084-0.054,0.126c-0.369,0.774-0.769,1.529-1.188,2.274
		c-0.073,0.129-0.149,0.257-0.222,0.386c-0.413,0.71-0.839,1.412-1.292,2.094c-0.017,0.023-0.029,0.047-0.045,0.07
		c-0.484,0.724-0.996,1.43-1.525,2.12c-0.07,0.087-0.138,0.174-0.206,0.261c-0.524,0.67-1.067,1.325-1.633,1.958
		c-0.006,0.006-0.012,0.014-0.019,0.02c-0.594,0.664-1.215,1.305-1.852,1.927c-0.05,0.048-0.101,0.096-0.154,0.144
		c-1.286,1.239-2.657,2.392-4.104,3.445c-0.029,0.02-0.057,0.039-0.085,0.06c-1.475,1.067-3.029,2.034-4.65,2.887
		c-0.009,0.005-0.02,0.009-0.031,0.016c-0.814,0.428-1.649,0.83-2.497,1.201c-1.77,0.774-3.606,1.419-5.5,1.925
		c-0.019,0.005-0.033,0.009-0.05,0.014c-0.593,0.157-1.19,0.298-1.79,0.427c-0.05,0.011-0.099,0.025-0.15,0.036
		c-0.562,0.118-1.129,0.22-1.699,0.315c-0.093,0.016-0.183,0.034-0.276,0.05c-0.535,0.084-1.075,0.15-1.618,0.212
		c-0.126,0.014-0.251,0.034-0.378,0.048c-0.523,0.054-1.049,0.092-1.576,0.124c-0.149,0.009-0.295,0.026-0.444,0.034
		c-0.673,0.034-1.349,0.053-2.032,0.053c-21.417,0-38.779-17.362-38.779-38.779s17.362-38.779,38.779-38.779
		c0.681,0,1.359,0.019,2.032,0.053c0.152,0.008,0.299,0.025,0.451,0.036c0.524,0.033,1.049,0.068,1.567,0.123
		c0.133,0.014,0.264,0.036,0.397,0.051c0.537,0.062,1.072,0.127,1.601,0.211c0.093,0.014,0.183,0.034,0.276,0.05
		c0.569,0.093,1.135,0.197,1.699,0.315c0.05,0.011,0.099,0.023,0.15,0.036c0.602,0.129,1.197,0.27,1.79,0.427
		c0.017,0.005,0.033,0.009,0.05,0.014c1.894,0.506,3.73,1.151,5.5,1.925c0.85,0.371,1.683,0.772,2.497,1.201
		c0.011,0.005,0.022,0.009,0.031,0.016c1.621,0.855,3.175,1.819,4.65,2.887c0.028,0.02,0.056,0.039,0.085,0.061
		c1.449,1.053,2.818,2.206,4.104,3.445c0.051,0.048,0.102,0.096,0.154,0.144c0.638,0.622,1.26,1.263,1.852,1.927
		c0.006,0.006,0.012,0.012,0.019,0.02c0.566,0.633,1.109,1.287,1.633,1.958c0.068,0.087,0.136,0.174,0.206,0.261
		c0.53,0.69,1.042,1.394,1.525,2.12c0.017,0.023,0.029,0.047,0.045,0.07c0.453,0.683,0.879,1.382,1.292,2.094
		c0.073,0.129,0.149,0.257,0.222,0.386c0.419,0.745,0.817,1.5,1.188,2.274c0.019,0.04,0.036,0.084,0.054,0.124
		c0.343,0.72,0.656,1.455,0.951,2.2c0.068,0.169,0.137,0.337,0.2,0.507c0.302,0.79,0.588,1.59,0.839,2.404
		c0.014,0.047,0.026,0.095,0.039,0.14c0.233,0.763,0.436,1.537,0.62,2.319c0.048,0.2,0.095,0.402,0.14,0.603
		c0.183,0.83,0.349,1.667,0.478,2.518c0.006,0.039,0.009,0.078,0.016,0.116c0.119,0.811,0.208,1.633,0.278,2.462
		c0.02,0.22,0.036,0.439,0.051,0.661c0.057,0.87,0.098,1.745,0.098,2.629C279.266,202.655,279.224,203.532,279.167,204.4z
		 M333.409,301.845c-2.46,0.49-5.006,0.751-7.608,0.751c-5.856,0-11.406-1.306-16.383-3.63
		c-13.227-6.175-22.395-19.588-22.395-35.149c0-21.417,17.362-38.779,38.779-38.779c4.663,0,9.133,0.824,13.273,2.333
		c7.813,2.846,14.45,8.134,18.995,14.941c4.109,6.155,6.51,13.549,6.51,21.505C364.579,282.629,351.18,298.308,333.409,301.845z"/>
</g>
<path style="fill:#FFB655;" d="M455.574,49.906c-2.361-5.702-6.89-10.231-12.592-12.592C383.261,12.577,320.353,0.026,255.999,0.002
	c-0.06,0-0.121-0.002-0.181-0.002C191.64,0,128.793,12.555,69.016,37.316c-5.702,2.362-10.231,6.892-12.592,12.592
	c-2.361,5.702-2.361,12.108,0,17.809l33.401,80.633l0.02,0.047c4.658,11.243,17.194,16.996,28.752,13.202
	c0.557-0.183,1.12-0.352,1.678-0.532c7.435-2.409,14.917-4.621,22.443-6.625c0.188-0.05,0.374-0.104,0.563-0.155
	c0.769-0.203,1.54-0.396,2.311-0.596c1.838-0.478,3.676-0.946,5.519-1.398c0.954-0.234,1.909-0.462,2.865-0.689
	c1.702-0.406,3.403-0.802,5.108-1.188c0.962-0.217,1.923-0.434,2.887-0.645c1.812-0.397,3.627-0.777,5.441-1.152
	c0.821-0.169,1.643-0.344,2.463-0.509c2.612-0.521,5.227-1.024,7.847-1.498c0.306-0.056,0.614-0.104,0.923-0.158
	c2.327-0.416,4.657-0.813,6.989-1.191c0.883-0.143,1.768-0.276,2.652-0.414c1.781-0.278,3.563-0.546,5.345-0.802
	c0.977-0.14,1.956-0.275,2.935-0.41c1.753-0.239,3.509-0.465,5.263-0.683c0.931-0.115,1.86-0.233,2.794-0.343
	c2.051-0.24,4.104-0.464,6.16-0.676c0.613-0.064,1.221-0.133,1.83-0.195c2.652-0.262,5.308-0.499,7.965-0.714
	c0.695-0.056,1.391-0.101,2.088-0.154c1.981-0.15,3.965-0.292,5.949-0.414c0.946-0.059,1.896-0.11,2.842-0.163
	c1.768-0.098,3.537-0.186,5.306-0.264c0.976-0.042,1.95-0.084,2.925-0.119c1.843-0.068,3.689-0.121,5.533-0.166
	c0.855-0.02,1.708-0.047,2.561-0.064c2.679-0.048,5.358-0.079,8.041-0.079c0.059,0,0.119,0.002,0.178,0.002
	c2.631,0.002,5.261,0.031,7.888,0.079c0.852,0.016,1.703,0.042,2.553,0.062c1.855,0.045,3.712,0.098,5.567,0.166
	c0.973,0.036,1.948,0.078,2.922,0.119c1.779,0.078,3.558,0.166,5.334,0.265c0.945,0.053,1.889,0.102,2.834,0.161
	c1.995,0.123,3.986,0.265,5.98,0.416c0.692,0.053,1.388,0.098,2.079,0.152c2.669,0.216,5.336,0.453,8.001,0.715
	c0.589,0.059,1.177,0.127,1.767,0.188c2.086,0.214,4.171,0.441,6.254,0.684c0.917,0.107,1.832,0.223,2.749,0.338
	c1.779,0.22,3.558,0.45,5.334,0.692c0.965,0.13,1.93,0.265,2.893,0.402c1.809,0.259,3.614,0.532,5.42,0.813
	c0.87,0.135,1.742,0.265,2.612,0.406c2.358,0.382,4.712,0.782,7.065,1.202c0.29,0.051,0.579,0.098,0.87,0.15
	c2.642,0.478,5.279,0.982,7.914,1.508c0.779,0.155,1.556,0.323,2.335,0.481c1.869,0.383,3.737,0.776,5.603,1.184
	c0.934,0.203,1.863,0.414,2.797,0.624c1.748,0.394,3.496,0.8,5.244,1.216c0.921,0.22,1.843,0.439,2.763,0.664
	c1.906,0.467,3.808,0.951,5.71,1.443c0.717,0.186,1.432,0.363,2.147,0.552c0.216,0.056,0.427,0.118,0.642,0.175
	c7.525,2.003,15.007,4.21,22.443,6.613c0.565,0.181,1.131,0.352,1.695,0.537c2.4,0.786,4.84,1.16,7.244,1.16
	c9.175,0,17.806-5.463,21.494-14.368l33.424-80.691C457.934,62.013,457.934,55.607,455.574,49.906z"/>
<g>
	<path style="fill:#FF0C38;" d="M217.22,271.573c-8.562,0-16.472,2.781-22.887,7.481c-7.784,5.702-13.357,14.233-15.212,24.083
		c-0.439,2.339-0.679,4.748-0.679,7.214c0,13.317,6.715,25.063,16.943,32.047c6.22,4.245,13.735,6.732,21.835,6.732
		c2.024,0,4.01-0.157,5.95-0.454c18.59-2.863,32.828-18.932,32.828-38.324C255.999,288.936,238.635,271.573,217.22,271.573z"/>
	<path style="fill:#FF0C38;" d="M279.167,199.142c-0.016-0.222-0.033-0.441-0.051-0.661c-0.07-0.828-0.158-1.649-0.278-2.462
		c-0.006-0.039-0.009-0.078-0.016-0.116c-0.129-0.85-0.293-1.688-0.478-2.518c-0.045-0.202-0.092-0.403-0.14-0.603
		c-0.185-0.782-0.388-1.556-0.62-2.319c-0.014-0.047-0.026-0.093-0.039-0.14c-0.251-0.814-0.537-1.615-0.839-2.404
		c-0.064-0.171-0.132-0.338-0.2-0.507c-0.296-0.743-0.61-1.478-0.951-2.2c-0.019-0.04-0.036-0.084-0.054-0.124
		c-0.369-0.774-0.769-1.529-1.188-2.274c-0.073-0.129-0.149-0.257-0.222-0.386c-0.413-0.71-0.839-1.412-1.292-2.094
		c-0.017-0.023-0.029-0.047-0.045-0.07c-0.484-0.724-0.996-1.43-1.525-2.12c-0.07-0.087-0.138-0.174-0.206-0.261
		c-0.524-0.67-1.067-1.325-1.633-1.958c-0.006-0.006-0.012-0.012-0.019-0.02c-0.594-0.664-1.215-1.305-1.852-1.927
		c-0.05-0.048-0.101-0.095-0.154-0.144c-1.287-1.239-2.657-2.392-4.104-3.445c-0.029-0.02-0.057-0.039-0.085-0.061
		c-1.475-1.067-3.029-2.034-4.65-2.887c-0.009-0.005-0.02-0.009-0.031-0.016c-0.814-0.428-1.649-0.83-2.497-1.201
		c-1.77-0.774-3.606-1.419-5.5-1.925c-0.019-0.005-0.033-0.009-0.05-0.014c-0.591-0.157-1.19-0.298-1.79-0.427
		c-0.05-0.011-0.099-0.025-0.15-0.036c-0.56-0.119-1.129-0.22-1.699-0.315c-0.093-0.016-0.183-0.036-0.276-0.05
		c-0.529-0.084-1.066-0.149-1.601-0.211c-0.133-0.016-0.264-0.036-0.397-0.051c-0.518-0.054-1.042-0.09-1.567-0.123
		c-0.152-0.009-0.299-0.026-0.451-0.036c-0.673-0.034-1.349-0.053-2.032-0.053c-21.417,0-38.779,17.362-38.779,38.779
		s17.362,38.779,38.779,38.779c0.681,0,1.359-0.019,2.032-0.053c0.149-0.008,0.295-0.025,0.444-0.034
		c0.527-0.033,1.053-0.07,1.576-0.124c0.127-0.012,0.253-0.033,0.378-0.048c0.543-0.062,1.083-0.129,1.618-0.212
		c0.093-0.014,0.183-0.034,0.276-0.05c0.569-0.095,1.137-0.195,1.699-0.315c0.05-0.011,0.099-0.023,0.15-0.036
		c0.602-0.129,1.199-0.27,1.79-0.427c0.017-0.005,0.033-0.009,0.05-0.014c1.894-0.506,3.73-1.151,5.5-1.925
		c0.85-0.371,1.683-0.772,2.497-1.201c0.011-0.005,0.022-0.009,0.031-0.016c1.621-0.853,3.175-1.821,4.65-2.887
		c0.028-0.02,0.056-0.039,0.085-0.061c1.449-1.053,2.817-2.206,4.104-3.445c0.051-0.048,0.102-0.096,0.154-0.144
		c0.638-0.622,1.26-1.263,1.852-1.927c0.006-0.006,0.012-0.012,0.019-0.02c0.566-0.633,1.109-1.289,1.633-1.958
		c0.068-0.087,0.137-0.174,0.206-0.261c0.53-0.69,1.042-1.394,1.525-2.12c0.017-0.023,0.029-0.047,0.045-0.07
		c0.453-0.683,0.88-1.382,1.292-2.094c0.073-0.129,0.149-0.256,0.222-0.386c0.419-0.745,0.817-1.502,1.188-2.274
		c0.019-0.04,0.036-0.084,0.054-0.126c0.343-0.72,0.655-1.455,0.951-2.198c0.068-0.169,0.136-0.337,0.2-0.507
		c0.302-0.79,0.588-1.59,0.839-2.404c0.014-0.047,0.026-0.093,0.039-0.14c0.233-0.763,0.436-1.537,0.62-2.319
		c0.048-0.2,0.095-0.402,0.14-0.603c0.183-0.83,0.349-1.667,0.478-2.518c0.006-0.037,0.009-0.078,0.016-0.116
		c0.119-0.811,0.208-1.633,0.278-2.462c0.02-0.22,0.036-0.439,0.051-0.661c0.057-0.87,0.098-1.745,0.098-2.629
		C279.266,200.887,279.224,200.011,279.167,199.142z"/>
	<path style="fill:#FF0C38;" d="M339.072,227.371c-4.14-1.509-8.61-2.333-13.273-2.333c-21.417,0-38.779,17.362-38.779,38.779
		c0,15.56,9.169,28.972,22.397,35.149c4.978,2.325,10.526,3.63,16.382,3.63c2.604,0,5.148-0.262,7.608-0.751
		c17.771-3.537,31.17-19.216,31.17-38.028c0-7.956-2.401-15.35-6.51-21.505C353.524,235.505,346.885,230.218,339.072,227.371z"/>
</g>
<path style="fill:#EE8700;" d="M89.825,148.35l0.02,0.047c4.658,11.243,17.194,16.996,28.752,13.202
	c0.557-0.183,1.12-0.352,1.678-0.532c7.435-2.409,14.917-4.621,22.443-6.625c0.188-0.05,0.374-0.104,0.563-0.155
	c0.769-0.203,1.54-0.396,2.311-0.596c1.838-0.478,3.676-0.946,5.519-1.398c0.954-0.234,1.909-0.462,2.865-0.689
	c1.702-0.406,3.403-0.802,5.108-1.188c0.962-0.217,1.923-0.434,2.887-0.645c1.812-0.397,3.627-0.777,5.441-1.152
	c0.821-0.169,1.643-0.344,2.463-0.509c2.612-0.521,5.227-1.024,7.847-1.498c0.306-0.056,0.614-0.104,0.923-0.158
	c2.327-0.416,4.657-0.813,6.989-1.191c0.883-0.143,1.768-0.276,2.652-0.414c1.781-0.278,3.563-0.548,5.345-0.803
	c0.977-0.14,1.956-0.275,2.935-0.41c1.753-0.239,3.509-0.465,5.263-0.682c0.931-0.115,1.86-0.233,2.794-0.343
	c2.051-0.24,4.104-0.464,6.16-0.676c0.613-0.062,1.221-0.133,1.83-0.194c2.652-0.262,5.308-0.499,7.965-0.714
	c0.695-0.056,1.391-0.101,2.088-0.154c1.981-0.15,3.965-0.292,5.949-0.414c0.946-0.059,1.896-0.11,2.842-0.163
	c1.768-0.098,3.537-0.186,5.306-0.264c0.976-0.042,1.95-0.084,2.925-0.119c1.843-0.068,3.689-0.121,5.533-0.164
	c0.855-0.02,1.708-0.047,2.561-0.062c2.679-0.048,5.358-0.079,8.041-0.079c0.059,0,0.119,0.002,0.178,0.002V0.005
	c-0.06,0-0.121-0.002-0.181-0.002C191.64,0,128.793,12.555,69.016,37.316c-5.702,2.362-10.231,6.892-12.592,12.592
	c-2.361,5.702-2.361,12.108,0,17.809L89.825,148.35z"/>
<path style="fill:#EEBF00;" d="M223.17,348.675c-1.94,0.298-3.926,0.454-5.95,0.454c-8.1,0-15.615-2.486-21.835-6.732
	c-10.228-6.982-16.943-18.729-16.943-32.047c0-2.466,0.24-4.877,0.679-7.214c1.854-9.85,7.428-18.381,15.212-24.083
	c6.416-4.7,14.323-7.481,22.887-7.481c21.417,0,38.779,17.362,38.779,38.779v-73.039c-1.77,0.774-3.606,1.419-5.5,1.925
	c-0.019,0.005-0.033,0.009-0.05,0.014c-0.593,0.157-1.19,0.298-1.79,0.427c-0.05,0.011-0.099,0.025-0.15,0.036
	c-0.562,0.118-1.128,0.22-1.699,0.315c-0.093,0.016-0.183,0.034-0.276,0.05c-0.535,0.084-1.075,0.15-1.618,0.212
	c-0.126,0.014-0.251,0.034-0.378,0.048c-0.523,0.054-1.049,0.092-1.576,0.124c-0.149,0.009-0.295,0.026-0.444,0.034
	c-0.673,0.034-1.349,0.053-2.032,0.053c-21.417,0-38.779-17.362-38.779-38.779s17.362-38.779,38.779-38.779
	c0.681,0,1.359,0.019,2.032,0.053c0.152,0.008,0.299,0.025,0.451,0.034c0.524,0.033,1.049,0.068,1.567,0.123
	c0.133,0.014,0.264,0.036,0.397,0.051c0.537,0.062,1.072,0.127,1.601,0.211c0.093,0.014,0.183,0.034,0.276,0.05
	c0.569,0.093,1.135,0.195,1.699,0.315c0.05,0.011,0.099,0.023,0.15,0.034c0.602,0.129,1.197,0.27,1.79,0.427
	c0.017,0.005,0.031,0.009,0.05,0.014c1.894,0.506,3.73,1.151,5.5,1.925v-26.624c-0.059,0-0.119-0.002-0.178-0.002
	c-2.682,0-5.362,0.031-8.041,0.079c-0.855,0.016-1.708,0.042-2.561,0.062c-1.844,0.045-3.69,0.098-5.533,0.164
	c-0.976,0.036-1.95,0.076-2.925,0.119c-1.77,0.078-3.538,0.166-5.306,0.264c-0.946,0.053-1.896,0.104-2.842,0.163
	c-1.984,0.123-3.968,0.264-5.949,0.414c-0.695,0.053-1.393,0.098-2.088,0.154c-2.657,0.214-5.313,0.451-7.965,0.714
	c-0.61,0.06-1.218,0.132-1.83,0.194c-2.054,0.213-4.107,0.434-6.16,0.676c-0.934,0.11-1.863,0.228-2.794,0.343
	c-1.754,0.217-3.51,0.445-5.263,0.683c-0.979,0.133-1.958,0.27-2.935,0.41c-1.782,0.256-3.565,0.526-5.345,0.803
	c-0.884,0.138-1.77,0.271-2.652,0.414c-2.333,0.378-4.663,0.776-6.989,1.191c-0.307,0.054-0.616,0.104-0.923,0.158
	c-2.618,0.475-5.235,0.977-7.847,1.498c-0.821,0.164-1.643,0.34-2.463,0.509c-1.815,0.374-3.63,0.755-5.441,1.152
	c-0.963,0.211-1.925,0.428-2.887,0.645c-1.705,0.386-3.406,0.782-5.108,1.188c-0.954,0.226-1.909,0.454-2.865,0.689
	c-1.843,0.453-3.681,0.921-5.519,1.398c-0.771,0.2-1.542,0.392-2.311,0.596c-0.189,0.05-0.375,0.104-0.563,0.155
	c-7.526,2.006-15.009,4.218-22.443,6.625c-0.558,0.181-1.121,0.349-1.678,0.532c-11.558,3.794-24.094-1.959-28.752-13.202
	l-0.02-0.047c0.006,0.016,0.011,0.031,0.017,0.045l144.661,349.242c3.602,8.694,12.085,14.364,21.496,14.364V310.348
	C255.999,329.744,241.761,345.812,223.17,348.675z"/>
<g>
	<path style="fill:#F1CB30;" d="M248.657,163.863c0.602,0.129,1.199,0.27,1.79,0.427
		C249.856,164.134,249.259,163.992,248.657,163.863z"/>
	<path style="fill:#F1CB30;" d="M246.534,240.078c-0.535,0.084-1.075,0.15-1.618,0.212
		C245.459,240.229,245.999,240.162,246.534,240.078z"/>
	<path style="fill:#F1CB30;" d="M255.999,166.23L255.999,166.23c-1.77-0.774-3.606-1.419-5.5-1.925
		C252.391,164.811,254.229,165.456,255.999,166.23z"/>
	<path style="fill:#F1CB30;" d="M250.498,239.238c1.894-0.506,3.73-1.151,5.5-1.925l0,0
		C254.229,238.087,252.391,238.732,250.498,239.238z"/>
	<path style="fill:#F1CB30;" d="M242.518,240.497c-0.673,0.034-1.349,0.053-2.032,0.053
		C241.168,240.55,241.846,240.531,242.518,240.497z"/>
	<path style="fill:#F1CB30;" d="M250.449,239.253c-0.591,0.157-1.19,0.298-1.79,0.427
		C249.259,239.551,249.856,239.41,250.449,239.253z"/>
	<path style="fill:#F1CB30;" d="M248.508,239.715c-0.56,0.119-1.128,0.22-1.699,0.315
		C247.379,239.936,247.945,239.833,248.508,239.715z"/>
	<path style="fill:#F1CB30;" d="M244.537,240.339c-0.523,0.054-1.049,0.092-1.576,0.124
		C243.489,240.43,244.015,240.393,244.537,240.339z"/>
	<path style="fill:#F1CB30;" d="M240.487,162.993c0.681,0,1.359,0.019,2.032,0.053C241.846,163.011,241.168,162.993,240.487,162.993
		z"/>
	<path style="fill:#F1CB30;" d="M246.81,163.514c0.569,0.093,1.137,0.195,1.699,0.315
		C247.945,163.711,247.379,163.608,246.81,163.514z"/>
	<path style="fill:#F1CB30;" d="M244.933,163.255c0.537,0.062,1.072,0.127,1.601,0.211
		C246.005,163.382,245.47,163.315,244.933,163.255z"/>
	<path style="fill:#F1CB30;" d="M242.969,163.081c0.524,0.033,1.049,0.068,1.567,0.123
		C244.018,163.149,243.493,163.114,242.969,163.081z"/>
</g>
<g>
	<path style="fill:#F4D853;" d="M274.313,182.815c0.419,0.745,0.817,1.502,1.188,2.274
		C275.132,184.316,274.732,183.559,274.313,182.815z"/>
	<path style="fill:#F4D853;" d="M275.556,185.214c0.343,0.72,0.655,1.457,0.951,2.2
		C276.212,186.669,275.898,185.934,275.556,185.214z"/>
	<path style="fill:#F4D853;" d="M276.707,187.921c0.302,0.79,0.588,1.59,0.839,2.404
		C277.294,189.509,277.011,188.711,276.707,187.921z"/>
	<path style="fill:#F4D853;" d="M276.507,216.13c-0.296,0.743-0.61,1.478-0.951,2.198
		C275.898,217.608,276.21,216.875,276.507,216.13z"/>
	<path style="fill:#F4D853;" d="M255.999,237.314c0.85-0.371,1.683-0.772,2.497-1.201
		C257.682,236.542,256.849,236.943,255.999,237.314L255.999,237.314z"/>
	<path style="fill:#F4D853;" d="M263.178,233.21c-1.475,1.067-3.029,2.034-4.65,2.887
		C260.147,235.243,261.701,234.277,263.178,233.21z"/>
	<path style="fill:#F4D853;" d="M277.586,190.465c0.233,0.763,0.436,1.537,0.62,2.319
		C278.022,192.001,277.819,191.227,277.586,190.465z"/>
	<path style="fill:#F4D853;" d="M278.346,193.386c0.183,0.83,0.349,1.667,0.478,2.518
		C278.694,195.055,278.529,194.217,278.346,193.386z"/>
	<path style="fill:#F4D853;" d="M267.519,173.981c0.638,0.622,1.26,1.264,1.852,1.927
		C268.779,175.244,268.158,174.603,267.519,173.981z"/>
	<path style="fill:#F4D853;" d="M263.261,170.393c1.449,1.053,2.817,2.206,4.104,3.445
		C266.081,172.599,264.71,171.446,263.261,170.393z"/>
	<path style="fill:#F4D853;" d="M258.527,167.446c1.621,0.853,3.175,1.821,4.65,2.887
		C261.701,169.265,260.147,168.301,258.527,167.446z"/>
	<path style="fill:#F4D853;" d="M269.39,175.928c0.566,0.633,1.109,1.289,1.633,1.958
		C270.499,177.215,269.958,176.56,269.39,175.928z"/>
	<path style="fill:#F4D853;" d="M271.229,178.146c0.53,0.69,1.042,1.394,1.525,2.12C272.272,179.542,271.76,178.836,271.229,178.146
		z"/>
	<path style="fill:#F4D853;" d="M272.801,180.336c0.453,0.681,0.879,1.382,1.292,2.094
		C273.68,181.718,273.254,181.018,272.801,180.336z"/>
	<path style="fill:#F4D853;" d="M258.496,167.43c-0.814-0.428-1.649-0.83-2.497-1.201l0,0
		C256.849,166.601,257.682,167.002,258.496,167.43z"/>
	<path style="fill:#F4D853;" d="M278.822,207.639c-0.129,0.85-0.293,1.688-0.478,2.518
		C278.529,209.327,278.694,208.489,278.822,207.639z"/>
	<path style="fill:#F4D853;" d="M272.754,223.276c-0.484,0.724-0.996,1.43-1.525,2.12
		C271.76,224.706,272.272,224.002,272.754,223.276z"/>
	<path style="fill:#F4D853;" d="M267.367,229.706c-1.287,1.239-2.657,2.392-4.104,3.445
		C264.71,232.096,266.081,230.945,267.367,229.706z"/>
	<path style="fill:#F4D853;" d="M274.093,221.114c-0.413,0.712-0.839,1.412-1.292,2.094
		C273.254,222.526,273.68,221.824,274.093,221.114z"/>
	<path style="fill:#F4D853;" d="M277.546,213.219c-0.251,0.814-0.537,1.615-0.839,2.404
		C277.011,214.832,277.294,214.033,277.546,213.219z"/>
	<path style="fill:#F4D853;" d="M275.501,218.454c-0.369,0.774-0.769,1.529-1.188,2.274
		C274.732,219.983,275.132,219.228,275.501,218.454z"/>
	<path style="fill:#F4D853;" d="M278.207,210.76c-0.185,0.782-0.388,1.556-0.62,2.319
		C277.819,212.316,278.022,211.542,278.207,210.76z"/>
	<path style="fill:#F4D853;" d="M279.116,205.061c-0.07,0.828-0.158,1.65-0.278,2.462
		C278.957,206.712,279.046,205.89,279.116,205.061z"/>
	<path style="fill:#F4D853;" d="M269.373,227.635c-0.594,0.664-1.215,1.305-1.852,1.927
		C268.158,228.939,268.779,228.299,269.373,227.635z"/>
	<path style="fill:#F4D853;" d="M271.023,225.657c-0.524,0.67-1.067,1.325-1.633,1.958
		C269.958,226.982,270.499,226.327,271.023,225.657z"/>
	<path style="fill:#F4D853;" d="M279.167,199.142c0.057,0.87,0.099,1.745,0.099,2.629
		C279.266,200.887,279.224,200.011,279.167,199.142z"/>
	<path style="fill:#F4D853;" d="M279.266,201.771c0,0.884-0.04,1.761-0.099,2.629C279.224,203.532,279.266,202.657,279.266,201.771z
		"/>
</g>
<path style="fill:#FF0C38;" d="M278.838,196.02c0.119,0.813,0.208,1.633,0.278,2.462
	C279.046,197.653,278.957,196.832,278.838,196.02z"/>
</svg>